<?xml version="1.0" encoding="utf-8"?>
<!-- Generator: Adobe Illustrator 21.1.0, SVG Export Plug-In . SVG Version: 6.00 Build 0)  -->
<svg version="1.1" id="Layer_1" xmlns="http://www.w3.org/2000/svg" xmlns:xlink="http://www.w3.org/1999/xlink" x="0px" y="0px"
	 viewBox="0 0 644.2 265.4" style="enable-background:new 0 0 644.2 265.4;" xml:space="preserve">
<style type="text/css">
	.st0{fill:#001128;}
	.st1{fill:#EEE7B4;}
	.st2{fill:#FFCE00;}
	.st3{fill:#30A98D;}
	.st4{fill:#81C420;}
	.st5{fill:#FCCF12;}
	.st6{fill:#F58119;}
	.st7{fill:#E60E7C;}
	.st8{fill:#2E58A6;}
	.st9{fill:#8EF4D6;}
	.st10{fill:#D9FF97;}
	.st11{fill:#F9E178;}
	.st12{fill:#F7B279;}
	.st13{fill:#F99DD0;}
	.st14{fill:#6BA2F9;}
	.st15{fill:#5CE5BB;}
	.st16{fill:#BFEF62;}
	.st17{fill:#F4D038;}
	.st18{fill:#F49751;}
	.st19{fill:#F26BBC;}
	.st20{fill:#3E8BF9;}
	.st21{fill:#80C41C;}
	.st22{fill:#237D26;}
	.st23{fill:#01A0C6;}
	.st24{fill:#F2F91C;}
	.st25{fill:#FF8000;}
	.st26{fill:#F4136B;}
	.st27{fill:#1B8C53;}
	.st28{fill:#A3076B;}
	.st29{fill:#05D336;}
	.st30{fill:#DD6F0B;}
	.st31{fill:#1010FF;}
	.st32{fill:#ACD307;}
	.st33{fill:#C003DB;}
	.st34{fill:#2A82EA;}
	.st35{fill:#9FC405;}
	.st36{fill:#EFC206;}
	.st37{fill:#EF150A;}
	.st38{fill:#9D06ED;}
	.st39{fill:#509B96;}
	.st40{fill:#39A2F7;}
	.st41{fill:#FC892B;}
	.st42{fill:#A4D805;}
	.st43{fill:#F9571E;}
	.st44{fill:#FFCE31;}
	.st45{fill:#3F7A77;}
	.st46{fill:#D55A10;}
	.st47{fill:#7DB000;}
	.st48{fill:#EB331E;}
	.st49{fill:#F0AB11;}
	.st50{fill:#F03F9D;}
	.st51{fill:#E8BB00;}
	.st52{fill:none;stroke:#EEE7B4;stroke-miterlimit:10;}
	.st53{fill:none;stroke:#001128;stroke-width:3;stroke-miterlimit:10;}
	.st54{fill:none;stroke:#001128;stroke-width:9;stroke-miterlimit:10;}
	.st55{fill:none;stroke:#EEE7B4;stroke-width:5;stroke-miterlimit:10;}
	.st56{fill:none;stroke:#FFFFFF;stroke-width:3;stroke-miterlimit:10;}
	.st57{fill:none;stroke:#FFFFFF;stroke-width:9;stroke-miterlimit:10;}
	.st58{fill:#FFFFFF;}
</style>
<rect x="1684.4" y="313.7" class="st0" width="409.2" height="409.2"/>
<path class="st1" d="M1604.7,1093.7c7.6,8.4,12.2,19.5,12.2,31.7c0,26-21.1,47.1-47.1,47.1c-12.2,0-23.3-4.6-31.7-12.2
	c8.6,9.5,21.1,15.5,34.9,15.5c26,0,47.1-21.1,47.1-47.1C1620.2,1114.8,1614.2,1102.3,1604.7,1093.7z"/>
<path class="st1" d="M1543.9,1128.6c0-23,16.4-42.1,38.1-46.3c-2.9-0.6-5.9-0.9-9-0.9c-26,0-47.1,21.1-47.1,47.1
	c0,26,21.1,47.1,47.1,47.1c3.1,0,6.1-0.3,9-0.9C1560.3,1170.7,1543.9,1151.6,1543.9,1128.6z"/>
<path class="st2" d="M1900.2,337.6c-2.5,0-4.9,0.1-7.3,0.2c92.2,3.9,165.7,79.7,165.7,172.9c0,93.1-73.5,169-165.7,172.9
	c2.4,0.1,4.9,0.2,7.3,0.2c95.6,0,173-77.5,173-173C2073.2,415.1,1995.7,337.6,1900.2,337.6z"/>
<rect x="520" y="-480.8" class="st0" width="578.9" height="367.7"/>
<rect x="567.9" y="-435.2" class="st3" width="21.8" height="21.8"/>
<rect x="589.7" y="-435.2" class="st4" width="21.8" height="21.8"/>
<rect x="611.5" y="-435.2" class="st5" width="21.8" height="21.8"/>
<rect x="633.3" y="-435.2" class="st6" width="21.8" height="21.8"/>
<rect x="655.1" y="-435.2" class="st7" width="21.8" height="21.8"/>
<rect x="676.8" y="-435.2" class="st8" width="21.8" height="21.8"/>
<rect x="735.2" y="-435.2" class="st9" width="21.8" height="21.8"/>
<rect x="757" y="-435.2" class="st10" width="21.8" height="21.8"/>
<rect x="778.8" y="-435.2" class="st11" width="21.8" height="21.8"/>
<rect x="800.6" y="-435.2" class="st12" width="21.8" height="21.8"/>
<rect x="822.4" y="-435.2" class="st13" width="21.8" height="21.8"/>
<rect x="844.2" y="-435.2" class="st14" width="21.8" height="21.8"/>
<rect x="735.2" y="-413.5" class="st15" width="21.8" height="21.8"/>
<rect x="757" y="-413.5" class="st16" width="21.8" height="21.8"/>
<rect x="778.8" y="-413.5" class="st17" width="21.8" height="21.8"/>
<rect x="800.6" y="-413.5" class="st18" width="21.8" height="21.8"/>
<rect x="822.4" y="-413.5" class="st19" width="21.8" height="21.8"/>
<rect x="844.2" y="-413.5" class="st20" width="21.8" height="21.8"/>
<rect x="567.9" y="-384.7" class="st21" width="21.8" height="21.8"/>
<rect x="589.7" y="-384.7" class="st22" width="21.8" height="21.8"/>
<rect x="611.5" y="-384.7" class="st23" width="21.8" height="21.8"/>
<rect x="633.3" y="-384.7" class="st24" width="21.8" height="21.8"/>
<rect x="655.1" y="-384.7" class="st25" width="21.8" height="21.8"/>
<rect x="676.8" y="-384.7" class="st26" width="21.8" height="21.8"/>
<rect x="567.9" y="-334.1" class="st27" width="21.8" height="21.8"/>
<rect x="589.7" y="-334.1" class="st28" width="21.8" height="21.8"/>
<rect x="611.5" y="-334.1" class="st29" width="21.8" height="21.8"/>
<rect x="633.3" y="-334.1" class="st30" width="21.8" height="21.8"/>
<rect x="655.1" y="-334.1" class="st31" width="21.8" height="21.8"/>
<rect x="676.8" y="-334.1" class="st32" width="21.8" height="21.8"/>
<rect x="567.9" y="-282.2" class="st33" width="21.8" height="21.8"/>
<rect x="589.7" y="-282.2" class="st34" width="21.8" height="21.8"/>
<rect x="611.5" y="-282.2" class="st35" width="21.8" height="21.8"/>
<rect x="633.3" y="-282.2" class="st36" width="21.8" height="21.8"/>
<rect x="655.1" y="-282.2" class="st37" width="21.8" height="21.8"/>
<rect x="676.8" y="-282.2" class="st38" width="21.8" height="21.8"/>
<rect x="567.9" y="-230.2" class="st33" width="21.8" height="21.8"/>
<rect x="589.7" y="-230.2" class="st34" width="21.8" height="21.8"/>
<rect x="611.5" y="-230.2" class="st35" width="21.8" height="21.8"/>
<rect x="633.3" y="-230.2" class="st36" width="21.8" height="21.8"/>
<rect x="29.2" y="445.1" class="st33" width="21.8" height="21.8"/>
<rect x="51" y="445.1" class="st34" width="21.8" height="21.8"/>
<rect x="72.8" y="445.1" class="st35" width="21.8" height="21.8"/>
<rect x="94.6" y="445.1" class="st36" width="21.8" height="21.8"/>
<rect x="116.4" y="445.1" class="st37" width="21.8" height="21.8"/>
<rect x="138.2" y="445.1" class="st38" width="21.8" height="21.8"/>
<rect x="29.2" y="445.1" class="st39" width="21.8" height="21.8"/>
<rect x="51" y="445.1" class="st40" width="21.8" height="21.8"/>
<rect x="72.8" y="445.1" class="st41" width="21.8" height="21.8"/>
<rect x="94.6" y="445.1" class="st42" width="21.8" height="21.8"/>
<rect x="116.4" y="445.1" class="st43" width="21.8" height="21.8"/>
<rect x="138.2" y="445.1" class="st44" width="21.8" height="21.8"/>
<rect x="29.2" y="409.2" class="st33" width="21.8" height="21.8"/>
<rect x="51" y="409.2" class="st34" width="21.8" height="21.8"/>
<rect x="72.8" y="409.2" class="st35" width="21.8" height="21.8"/>
<rect x="94.6" y="409.2" class="st36" width="21.8" height="21.8"/>
<rect x="116.4" y="409.2" class="st37" width="21.8" height="21.8"/>
<rect x="138.2" y="409.2" class="st38" width="21.8" height="21.8"/>
<rect x="29.2" y="409.2" class="st45" width="21.8" height="21.8"/>
<rect x="51" y="409.2" class="st34" width="21.8" height="21.8"/>
<rect x="72.8" y="409.2" class="st46" width="21.8" height="21.8"/>
<rect x="94.6" y="409.2" class="st47" width="21.8" height="21.8"/>
<rect x="116.4" y="409.2" class="st48" width="21.8" height="21.8"/>
<rect x="138.2" y="409.2" class="st49" width="21.8" height="21.8"/>
<rect x="655.1" y="-230.2" class="st37" width="21.8" height="21.8"/>
<rect x="676.8" y="-230.2" class="st38" width="21.8" height="21.8"/>
<rect x="567.9" y="-230.2" class="st45" width="21.8" height="21.8"/>
<rect x="589.7" y="-230.2" class="st34" width="21.8" height="21.8"/>
<rect x="611.5" y="-230.2" class="st46" width="21.8" height="21.8"/>
<rect x="633.3" y="-230.2" class="st47" width="21.8" height="21.8"/>
<rect x="655.1" y="-230.2" class="st48" width="21.8" height="21.8"/>
<rect x="676.8" y="-230.2" class="st49" width="21.8" height="21.8"/>
<rect x="571.7" y="-178.1" class="st50" width="21.8" height="21.8"/>
<rect x="593.5" y="-178.1" class="st50" width="21.8" height="21.8"/>
<rect x="615.2" y="-178.1" class="st50" width="21.8" height="21.8"/>
<rect x="637" y="-178.1" class="st50" width="21.8" height="21.8"/>
<rect x="658.8" y="-178.1" class="st50" width="21.8" height="21.8"/>
<rect x="680.6" y="-178.1" class="st50" width="21.8" height="21.8"/>
<g>
	<circle class="st1" cx="876.4" cy="1043.9" r="29.5"/>
	<path class="st51" d="M857.5,1043.9c0-14.5,10.4-26.5,24.2-29c-1.7-0.3-3.5-0.5-5.3-0.5c-16.3,0-29.5,13.2-29.5,29.5
		c0,16.3,13.2,29.5,29.5,29.5c1.8,0,3.6-0.2,5.3-0.5C867.9,1070.4,857.5,1058.4,857.5,1043.9z"/>
</g>
<circle class="st1" cx="893.7" cy="1151.9" r="29.5"/>
<circle class="st1" cx="888.6" cy="1151.9" r="29.5"/>
<path class="st1" d="M1739.7,510.6c0-89.7,68.2-163.4,155.6-172.2c-5.7-0.6-11.5-0.9-17.4-0.9c-95.6,0-173,77.5-173,173
	c0,95.6,77.5,173,173,173c5.9,0,11.7-0.3,17.4-0.9C1807.9,674.1,1739.7,600.3,1739.7,510.6z"/>
<circle class="st52" cx="1233" cy="394.1" r="64.2"/>
<rect x="1190.4" y="323.6" style="fill:none;" width="165.4" height="171.1"/>
<text transform="matrix(1 0 0 1 1190.4156 432.6972)" class="st1" style="font-family:'Menlo-Regular'; font-size:143.4988px;">a</text>
<path class="st1" d="M1833.2,858c-11.8,20.4-37.8,27.4-58.2,15.6s-27.4-37.8-15.6-58.2c7.1-12.3,19.3-19.7,32.4-21.1
	c-0.7,0-1.5-0.1-2.3-0.1c-26,0-47.1,21.1-47.1,47.1s21.1,47.1,47.1,47.1c21.3,0,39.2-14.1,45.1-33.4
	C1834.2,856.1,1833.7,857.1,1833.2,858z"/>
<path class="st51" d="M1791.2,792.3c-14.4,0-27.3,6.5-36,16.7c8.2-7,18.8-11.2,30.5-11.2c26,0,47.1,21.1,47.1,47.1
	c0,11.6-4.2,22.2-11.2,30.5c10.2-8.6,16.7-21.5,16.7-36C1838.3,813.4,1817.2,792.3,1791.2,792.3z"/>
<circle class="st53" cx="104.3" cy="105.7" r="64.2"/>
<circle class="st54" cx="184.9" cy="205.2" r="16.4"/>
<g>
	<path class="st0" d="M136,99.5v44.8h-13v-11.6c-2.8,4.7-6.2,8.1-10.4,10.3c-4.2,2.2-9.3,3.3-15.2,3.3c-8,0-14.4-2.3-19.1-6.8
		c-4.8-4.5-7.1-10.5-7.1-18.1c0-8.7,2.9-15.4,8.8-19.9c5.9-4.5,14.5-6.8,25.8-6.8H123v-2c0-6.3-1.6-10.8-4.8-13.6
		c-3.1-2.8-8.1-4.2-15-4.2c-4.4,0-8.8,0.6-13.3,1.9c-4.5,1.3-8.9,3.1-13.1,5.5V69.4c4.8-1.8,9.3-3.2,13.7-4.1
		c4.4-0.9,8.6-1.4,12.7-1.4c6.5,0,12,1,16.6,2.9c4.6,1.9,8.3,4.8,11.2,8.6c1.8,2.3,3,5.2,3.8,8.7C135.6,87.5,136,92.7,136,99.5z
		 M110.9,104.9h-4.3c-7.5,0-13.2,1.3-17,4c-3.8,2.6-5.7,6.6-5.7,11.8c0,4.7,1.4,8.4,4.3,11c2.8,2.6,6.8,3.9,11.8,3.9
		c7.1,0,12.7-2.5,16.7-7.4c4.1-4.9,6.1-11.7,6.2-20.4v-2.9H110.9z"/>
</g>
<line class="st53" x1="139.7" y1="159.8" x2="173.7" y2="193.8"/>
<rect x="-1" y="-522.3" class="st0" width="409.2" height="409.2"/>
<g>
	<circle class="st52" cx="207.4" cy="-325.3" r="64.2"/>
	<circle class="st55" cx="288" cy="-225.8" r="16.4"/>
	<rect x="164.8" y="-395.8" style="fill:none;" width="165.4" height="171.1"/>
	<text transform="matrix(1 0 0 1 164.8445 -286.7226)" class="st1" style="font-family:'Menlo-Regular'; font-size:143.4988px;">a</text>
	<line class="st52" x1="242.7" y1="-271.3" x2="276.7" y2="-237.3"/>
</g>
<g>
	<path class="st0" d="M212.8,112h-2.2c-0.6-3.9-2.1-6.7-4.4-8.7c-2.8-2.3-6.5-3.4-11.3-3.4c-4,0-7.3,0.9-10,2.8c-2.8,1.8-4,4-4,6.8
		c0,2.9,1.5,5.2,4.6,7.1c1.9,1.1,5.4,2.4,10.4,3.7c6.1,1.6,10.3,3,12.5,4.3c3.9,2.2,5.8,5.2,5.8,9.2c0,9.3-6,13.9-17.9,13.9
		c-11.6,0-17.9-5.3-19-15.9h2.3c0.6,4.9,2.2,8.4,5.1,10.6c2.6,2,6.4,3,11.6,3c10.4,0,15.6-3.9,15.6-11.7c0-3.3-1.7-5.8-5-7.5
		c-1.7-0.9-5.5-2.2-11.4-3.8c-5.5-1.5-9.4-2.9-11.5-4.2c-3.5-2.1-5.2-5-5.2-8.7c0-3.5,1.7-6.4,5-8.6c3.1-2.2,6.9-3.2,11.3-3.2
		C205.3,97.7,211.3,102.5,212.8,112z"/>
	<path class="st0" d="M220.2,99l17.5,43.4L255.1,99h2.6l-26.4,65.6h-2.6l7.8-19.4L217.7,99H220.2z"/>
	<path class="st0" d="M300.2,117.3v29.1h-2.3v-29.1c0-11.7-5.1-17.4-15.2-17.4c-4.6,0-8.4,1.7-11.5,5c-3.1,3.3-4.7,7.5-4.9,12.8
		v28.7h-2.2V99h2.2v9.3c1.5-3.2,3.6-5.8,6.5-7.7c2.9-1.9,6.1-2.8,9.8-2.8C294.3,97.7,300.2,104.2,300.2,117.3z"/>
	<path class="st0" d="M344.5,101.8c3.5,2.8,5.5,6.8,6.1,12.3h-2.2c-0.6-4.8-2.5-8.3-5.4-10.6c-3.1-2.4-7-3.6-11.7-3.6
		c-5.8,0-10.4,2.2-13.9,6.8c-3.3,4.2-5,9.8-5,16.6c0,6.6,1.6,11.9,4.7,16c3.3,4.1,8,6.2,14,6.2c9.9,0,15.8-5.2,17.5-15.6h2.2
		c-0.9,5.7-3,10.1-6.4,13.2c-3.4,3-7.8,4.6-13.3,4.6c-6.8,0-12.1-2.4-15.8-7.2c-3.5-4.4-5.1-10.1-5.1-17.2c0-7.2,1.7-13.2,5.4-18
		c3.9-5.1,9.1-7.6,15.6-7.6C336.6,97.7,341,99.1,344.5,101.8z"/>
	<path class="st0" d="M411.4,89.6c5.1,6.2,7.8,14.3,7.8,24c0,9.7-2.7,17.7-7.9,24c-5.6,6.6-13.1,10-22.6,10c-9.5,0-17.1-3.4-22.6-10
		c-5.3-6.3-7.9-14.3-7.9-24c0-9.7,2.6-17.8,7.9-24c5.6-6.7,13.1-10,22.7-10C398.3,79.6,405.8,82.9,411.4,89.6z M367.9,91.1
		c-5,5.9-7.4,13.4-7.4,22.6c0,9.2,2.4,16.7,7.3,22.6c5.1,6.1,12.1,9.3,20.9,9.3c8.7,0,15.7-3.1,20.9-9.3c4.9-5.9,7.3-13.4,7.3-22.6
		c0-9.3-2.5-16.8-7.3-22.6c-5.1-6.2-12.1-9.3-20.8-9.3C380,81.8,373,84.8,367.9,91.1z"/>
	<path class="st0" d="M465.3,105.5c3.4,4.6,5.1,10.3,5.1,17.2s-1.7,12.8-5,17.3c-3.8,5-9,7.6-15.7,7.6c-9,0-15-4.5-18.3-13.4v30.3
		h-2.2V99h2.2v12.3c3.7-9.1,9.7-13.6,18.3-13.6C456.3,97.7,461.5,100.3,465.3,105.5z M436,106.7c-3.1,4.1-4.6,9.4-4.6,15.8v1.2
		c0,6.2,1.5,11.4,4.5,15.4c3.3,4.2,7.9,6.4,13.8,6.4s10.5-2.3,13.9-6.7c3-4.2,4.6-9.5,4.6-16.1c0-6.5-1.6-11.8-4.6-16
		c-3.4-4.6-8-6.9-13.9-6.9S439.3,102.1,436,106.7z"/>
	<path class="st0" d="M489.7,99h13.6v2.2h-13.6v35.6c0,2.8,0.5,4.7,1.4,5.8c0.8,1.1,2.6,1.7,5.2,1.7h5.9v2.2h-5.9
		c-3.5,0-5.9-0.9-7.2-2.6c-1.1-1.5-1.7-3.9-1.7-7.1v-35.6h-11.1V99h11.1V84.7l2.2-1V99z"/>
	<path class="st0" d="M518.5,84.4c0.5,0.6,0.9,1.2,0.9,2.1c0,0.8-0.4,1.6-0.9,2.1c-0.6,0.6-1.3,0.9-2.1,0.9c-0.9,0-1.6-0.4-2.1-0.9
		c-0.6-0.6-0.9-1.3-0.9-2.1c0-0.9,0.3-1.6,0.9-2.1c0.6-0.6,1.2-0.9,2.1-0.9C517.2,83.5,518,83.7,518.5,84.4z M517.5,99v47.4h-2.2V99
		H517.5z"/>
	<path class="st0" d="M565.1,101.8c3.5,2.8,5.5,6.8,6.1,12.3h-2.2c-0.6-4.8-2.5-8.3-5.4-10.6c-3.1-2.4-7-3.6-11.7-3.6
		c-5.8,0-10.4,2.2-13.9,6.8c-3.3,4.2-5,9.8-5,16.6c0,6.6,1.6,11.9,4.7,16c3.3,4.1,8,6.2,14,6.2c9.9,0,15.8-5.2,17.5-15.6h2.2
		c-0.9,5.7-3,10.1-6.4,13.2c-3.4,3-7.8,4.6-13.3,4.6c-6.8,0-12.1-2.4-15.8-7.2c-3.5-4.4-5.1-10.1-5.1-17.2c0-7.2,1.7-13.2,5.4-18
		c3.9-5.1,9.1-7.6,15.6-7.6C557.2,97.7,561.6,99.1,565.1,101.8z"/>
	<path class="st0" d="M613.6,112h-2.2c-0.6-3.9-2.1-6.7-4.4-8.7c-2.8-2.3-6.5-3.4-11.3-3.4c-4,0-7.3,0.9-10,2.8c-2.8,1.8-4,4-4,6.8
		c0,2.9,1.5,5.2,4.6,7.1c1.9,1.1,5.4,2.4,10.4,3.7c6.1,1.6,10.3,3,12.5,4.3c3.9,2.2,5.8,5.2,5.8,9.2c0,9.3-6,13.9-17.9,13.9
		c-11.6,0-17.9-5.3-19-15.9h2.3c0.6,4.9,2.2,8.4,5.1,10.6c2.6,2,6.4,3,11.6,3c10.4,0,15.6-3.9,15.6-11.7c0-3.3-1.7-5.8-5-7.5
		c-1.7-0.9-5.5-2.2-11.4-3.8c-5.5-1.5-9.4-2.9-11.5-4.2c-3.5-2.1-5.2-5-5.2-8.7c0-3.5,1.7-6.4,5-8.6c3.1-2.2,6.9-3.2,11.3-3.2
		C606.1,97.7,612.1,102.5,613.6,112z"/>
</g>
<circle class="st56" cx="807.7" cy="121.9" r="64.2"/>
<circle class="st57" cx="888.3" cy="221.3" r="16.4"/>
<g>
	<path class="st58" d="M839.3,115.7v44.8h-13v-11.6c-2.8,4.7-6.2,8.1-10.4,10.3c-4.2,2.2-9.3,3.3-15.2,3.3c-8,0-14.4-2.3-19.1-6.8
		c-4.8-4.5-7.1-10.5-7.1-18.1c0-8.7,2.9-15.4,8.8-19.9c5.9-4.5,14.5-6.8,25.8-6.8h17.3v-2c0-6.3-1.6-10.8-4.8-13.6
		c-3.1-2.8-8.1-4.2-15-4.2c-4.4,0-8.8,0.6-13.3,1.9c-4.5,1.3-8.9,3.1-13.1,5.5V85.6c4.8-1.8,9.3-3.2,13.7-4.1
		c4.4-0.9,8.6-1.4,12.7-1.4c6.5,0,12,1,16.6,2.9c4.6,1.9,8.3,4.8,11.2,8.6c1.8,2.3,3,5.2,3.8,8.7
		C838.9,103.7,839.3,108.8,839.3,115.7z M814.3,121H810c-7.5,0-13.2,1.3-17,4c-3.8,2.6-5.7,6.6-5.7,11.8c0,4.7,1.4,8.4,4.3,11
		c2.8,2.6,6.8,3.9,11.8,3.9c7.1,0,12.7-2.5,16.7-7.4c4.1-4.9,6.1-11.7,6.2-20.4V121H814.3z"/>
</g>
<line class="st56" x1="843" y1="175.9" x2="877" y2="209.9"/>
<g>
	<path class="st58" d="M916.1,128.1h-2.2c-0.6-3.9-2.1-6.7-4.4-8.7c-2.8-2.3-6.5-3.4-11.3-3.4c-4,0-7.3,0.9-10,2.8
		c-2.8,1.8-4,4-4,6.8c0,2.9,1.5,5.2,4.6,7.1c1.9,1.1,5.4,2.4,10.4,3.7c6.1,1.6,10.3,3,12.5,4.3c3.9,2.2,5.8,5.2,5.8,9.2
		c0,9.3-6,13.9-17.9,13.9c-11.6,0-17.9-5.3-19-15.9h2.3c0.6,4.9,2.2,8.4,5.1,10.6c2.6,2,6.4,3,11.6,3c10.4,0,15.6-3.9,15.6-11.7
		c0-3.3-1.7-5.8-5-7.5c-1.7-0.9-5.5-2.2-11.4-3.8c-5.5-1.5-9.4-2.9-11.5-4.2c-3.5-2.1-5.2-5-5.2-8.7c0-3.5,1.7-6.4,5-8.6
		c3.1-2.2,6.9-3.2,11.3-3.2C908.7,113.8,914.7,118.6,916.1,128.1z"/>
	<path class="st58" d="M923.5,115.1l17.5,43.4l17.4-43.4h2.6l-26.4,65.6h-2.6l7.8-19.4l-18.8-46.2H923.5z"/>
	<path class="st58" d="M1003.5,133.5v29.1h-2.3v-29.1c0-11.7-5.1-17.4-15.2-17.4c-4.6,0-8.4,1.7-11.5,5c-3.1,3.3-4.7,7.5-4.9,12.8
		v28.7h-2.2v-47.4h2.2v9.3c1.5-3.2,3.6-5.8,6.5-7.7c2.9-1.9,6.1-2.8,9.8-2.8C997.7,113.8,1003.5,120.3,1003.5,133.5z"/>
	<path class="st58" d="M1047.8,118c3.5,2.8,5.5,6.8,6.1,12.3h-2.2c-0.6-4.8-2.5-8.3-5.4-10.6c-3.1-2.4-7-3.6-11.7-3.6
		c-5.8,0-10.4,2.2-13.9,6.8c-3.3,4.2-5,9.8-5,16.6c0,6.6,1.6,11.9,4.7,16c3.3,4.1,8,6.2,14,6.2c9.9,0,15.8-5.2,17.5-15.6h2.2
		c-0.9,5.7-3,10.1-6.4,13.2c-3.4,3-7.8,4.6-13.3,4.6c-6.8,0-12.1-2.4-15.8-7.2c-3.5-4.4-5.1-10.1-5.1-17.2c0-7.2,1.7-13.2,5.4-18
		c3.9-5.1,9.1-7.6,15.6-7.6C1040,113.8,1044.4,115.2,1047.8,118z"/>
	<path class="st58" d="M1114.7,105.8c5.1,6.2,7.8,14.3,7.8,24c0,9.7-2.7,17.7-7.9,24c-5.6,6.6-13.1,10-22.6,10
		c-9.5,0-17.1-3.4-22.6-10c-5.3-6.3-7.9-14.3-7.9-24c0-9.7,2.6-17.8,7.9-24c5.6-6.7,13.1-10,22.7-10
		C1101.6,95.8,1109.1,99.1,1114.7,105.8z M1071.2,107.2c-5,5.9-7.4,13.4-7.4,22.6c0,9.2,2.4,16.7,7.3,22.6
		c5.1,6.1,12.1,9.3,20.9,9.3c8.7,0,15.7-3.1,20.9-9.3c4.9-5.9,7.3-13.4,7.3-22.6c0-9.3-2.5-16.8-7.3-22.6
		c-5.1-6.2-12.1-9.3-20.8-9.3C1083.3,98,1076.4,101,1071.2,107.2z"/>
	<path class="st58" d="M1168.7,121.6c3.4,4.6,5.1,10.3,5.1,17.2s-1.7,12.8-5,17.3c-3.8,5-9,7.6-15.7,7.6c-9,0-15-4.5-18.3-13.4v30.3
		h-2.2v-65.6h2.2v12.3c3.7-9.1,9.7-13.6,18.3-13.6C1159.7,113.8,1164.8,116.4,1168.7,121.6z M1139.4,122.8
		c-3.1,4.1-4.6,9.4-4.6,15.8v1.2c0,6.2,1.5,11.4,4.5,15.4c3.3,4.2,7.9,6.4,13.8,6.4s10.5-2.3,13.9-6.7c3-4.2,4.6-9.5,4.6-16.1
		c0-6.5-1.6-11.8-4.6-16c-3.4-4.6-8-6.9-13.9-6.9S1142.7,118.2,1139.4,122.8z"/>
	<path class="st58" d="M1193.1,115.1h13.6v2.2h-13.6v35.6c0,2.8,0.5,4.7,1.4,5.8c0.8,1.1,2.6,1.7,5.2,1.7h5.9v2.2h-5.9
		c-3.5,0-5.9-0.9-7.2-2.6c-1.1-1.5-1.7-3.9-1.7-7.1v-35.6h-11.1v-2.2h11.1v-14.3l2.2-1V115.1z"/>
	<path class="st58" d="M1221.9,100.5c0.5,0.6,0.9,1.2,0.9,2.1c0,0.8-0.4,1.6-0.9,2.1c-0.6,0.6-1.3,0.9-2.1,0.9
		c-0.9,0-1.6-0.4-2.1-0.9c-0.6-0.6-0.9-1.3-0.9-2.1c0-0.9,0.3-1.6,0.9-2.1c0.6-0.6,1.2-0.9,2.1-0.9
		C1220.6,99.6,1221.3,99.9,1221.9,100.5z M1220.9,115.1v47.4h-2.2v-47.4H1220.9z"/>
	<path class="st58" d="M1268.5,118c3.5,2.8,5.5,6.8,6.1,12.3h-2.2c-0.6-4.8-2.5-8.3-5.4-10.6c-3.1-2.4-7-3.6-11.7-3.6
		c-5.8,0-10.4,2.2-13.9,6.8c-3.3,4.2-5,9.8-5,16.6c0,6.6,1.6,11.9,4.7,16c3.3,4.1,8,6.2,14,6.2c9.9,0,15.8-5.2,17.5-15.6h2.2
		c-0.9,5.7-3,10.1-6.4,13.2c-3.4,3-7.8,4.6-13.3,4.6c-6.8,0-12.1-2.4-15.8-7.2c-3.5-4.4-5.1-10.1-5.1-17.2c0-7.2,1.7-13.2,5.4-18
		c3.9-5.1,9.1-7.6,15.6-7.6C1260.6,113.8,1265,115.2,1268.5,118z"/>
	<path class="st58" d="M1316.9,128.1h-2.2c-0.6-3.9-2.1-6.7-4.4-8.7c-2.8-2.3-6.5-3.4-11.3-3.4c-4,0-7.3,0.9-10,2.8
		c-2.8,1.8-4,4-4,6.8c0,2.9,1.5,5.2,4.6,7.1c1.9,1.1,5.4,2.4,10.4,3.7c6.1,1.6,10.3,3,12.5,4.3c3.9,2.2,5.8,5.2,5.8,9.2
		c0,9.3-6,13.9-17.9,13.9c-11.6,0-17.9-5.3-19-15.9h2.3c0.6,4.9,2.2,8.4,5.1,10.6c2.6,2,6.4,3,11.6,3c10.4,0,15.6-3.9,15.6-11.7
		c0-3.3-1.7-5.8-5-7.5c-1.7-0.9-5.5-2.2-11.4-3.8c-5.5-1.5-9.4-2.9-11.5-4.2c-3.5-2.1-5.2-5-5.2-8.7c0-3.5,1.7-6.4,5-8.6
		c3.1-2.2,6.9-3.2,11.3-3.2C1309.5,113.8,1315.4,118.6,1316.9,128.1z"/>
</g>
<rect x="396" y="445.1" style="fill:none;" width="640.9" height="185.7"/>
<text transform="matrix(1 0 0 1 395.9549 511.9169)" class="st0" style="font-family:'PingFangSC-Ultralight-GBpc-EUC-H'; font-size:91.7339px;">syncOptics </text>
</svg>
